<svg xmlns="http://www.w3.org/2000/svg" xml:space="preserve" style="enable-background:new 0 0 512 512"
     viewBox="0 0 512 512"><path fill="#8c91b6" d="M449.921 98.595c7.286-8.901 11.666-20.268 11.666-32.641V51.611C461.588 23.152 438.434 0 409.977 0c-28.458 0-51.612 23.152-51.612 51.611v14.344c0 12.373 4.38 23.74 11.666 32.641-35.152 5.855-62.039 36.465-62.039 73.254v21.889c0 5.522 4.476 9.998 9.998 9.998h183.972c5.522 0 9.998-4.476 9.998-9.998V171.85c.001-36.79-26.887-67.399-62.039-73.255zm-71.559-46.984c0-17.432 14.182-31.614 31.615-31.614s31.614 14.182 31.614 31.614v14.344c0 17.432-14.182 31.614-31.614 31.614s-31.615-14.182-31.615-31.614V51.611zm-50.373 132.128v-11.89c0-29.931 24.351-54.283 54.283-54.283h55.409c29.931 0 54.283 24.351 54.283 54.283v11.89H327.989zM309.992 65.158H258c-5.522 0-9.998 4.476-9.998 9.998 0 5.522 4.476 9.998 9.998 9.998h51.992c5.522 0 9.998-4.476 9.998-9.998.001-5.522-4.476-9.998-9.998-9.998zM221.076 68.089a10.073 10.073 0 0 0-7.069-2.93c-2.63 0-5.209 1.07-7.069 2.93-1.86 1.86-2.93 4.439-2.93 7.069s1.07 5.209 2.93 7.069a10.073 10.073 0 0 0 7.069 2.93c2.63 0 5.209-1.07 7.069-2.93 1.859-1.86 2.93-4.439 2.93-7.069s-1.07-5.21-2.93-7.069zM282.329 427.02H229.67c-5.522 0-9.998 4.476-9.998 9.998s4.476 9.998 9.998 9.998h52.659c5.522 0 9.998-4.476 9.998-9.998s-4.475-9.998-9.998-9.998zM75.069 219.759c-5.522 0-9.998 4.476-9.998 9.998v51.992c0 5.522 4.476 9.998 9.998 9.998s9.998-4.476 9.998-9.998v-51.992c.001-5.522-4.475-9.998-9.998-9.998zM437.058 219.759c-5.522 0-9.998 4.476-9.998 9.998v51.992c0 5.522 4.476 9.998 9.998 9.998s9.998-4.476 9.998-9.998v-51.992c0-5.522-4.476-9.998-9.998-9.998zM141.968 98.595c7.286-8.901 11.666-20.268 11.666-32.641V51.611C153.635 23.152 130.482 0 102.024 0 73.567 0 50.412 23.152 50.412 51.611v14.344c0 12.373 4.38 23.74 11.666 32.641C26.927 104.451.04 135.06.04 171.849v21.889c0 5.522 4.476 9.998 9.998 9.998H194.01c5.522 0 9.998-4.476 9.998-9.998v-21.889c.001-36.789-26.887-67.398-62.04-73.254zM70.409 51.611c0-17.432 14.182-31.614 31.615-31.614s31.614 14.182 31.614 31.614v14.344c0 17.432-14.182 31.614-31.614 31.614S70.409 83.387 70.409 65.955V51.611zm113.603 132.128H20.037v-11.89c0-29.931 24.351-54.283 54.283-54.283h55.409c29.931 0 54.283 24.351 54.283 54.283v11.89zM449.921 406.859c7.286-8.901 11.666-20.267 11.666-32.64v-14.344c0-28.459-23.152-51.611-51.611-51.611-28.459 0-51.611 23.152-51.611 51.611v14.344c0 12.373 4.38 23.739 11.666 32.64-35.152 5.855-62.039 36.465-62.039 73.254v21.889c0 5.522 4.476 9.998 9.998 9.998h183.972c5.522 0 9.998-4.476 9.998-9.998v-21.889c.001-36.788-26.887-67.398-62.039-73.254zm-71.559-46.983c0-17.432 14.182-31.614 31.614-31.614s31.614 14.182 31.614 31.614v14.344c0 17.432-14.182 31.614-31.614 31.614s-31.614-14.182-31.614-31.614v-14.344zm-50.373 132.127v-11.89c0-29.931 24.351-54.283 54.283-54.283h55.409c29.931 0 54.283 24.351 54.283 54.283v11.89H327.989zM141.968 406.859c7.286-8.901 11.666-20.267 11.666-32.64v-14.344c0-28.459-23.152-51.611-51.611-51.611s-51.611 23.153-51.611 51.612v14.344c0 12.373 4.38 23.739 11.666 32.64C26.927 412.715.04 443.325.04 480.113v21.889c0 5.522 4.476 9.998 9.998 9.998H194.01c5.522 0 9.998-4.476 9.998-9.998v-21.889c.001-36.788-26.887-67.398-62.04-73.254zm-71.559-46.983c0-17.432 14.182-31.614 31.614-31.614s31.614 14.182 31.614 31.614v14.344c0 17.432-14.182 31.614-31.614 31.614s-31.614-14.183-31.614-31.615v-14.343zm113.603 132.127H20.037v-11.89c0-29.931 24.351-54.283 54.283-54.283h55.409c29.931 0 54.283 24.351 54.283 54.283v11.89z"/></svg>
