<svg xmlns="http://www.w3.org/2000/svg" viewBox="0 -70 512 511"><path fill="#8c91b6" d="M511.473 261.55c-8.453-47.609-40.047-85.835-81.707-103.566 18.488-15.504 30.296-38.98 30.296-65.207 0-46.582-37.234-84.48-83.003-84.48-45.77 0-83.004 37.894-83.004 84.48 0 26.243 11.82 49.727 30.328 65.235a135.45 135.45 0 0 0-19.988 10.558c-16.106 10.328-29.856 23.93-40.454 39.86a170.6 170.6 0 0 0-34.609-17.7c26.277-18.996 43.457-50.23 43.457-85.476C272.79 47.492 226.652.5 169.941.5 113.231.5 67.094 47.492 67.094 105.254c0 35.246 17.18 66.48 43.457 85.476C54.629 211.652 11.738 261.406.613 324.047a39.59 39.59 0 0 0 8.653 32.41c7.48 8.926 18.394 14.043 29.945 14.043h261.46c11.552 0 22.466-5.117 29.946-14.043a39.577 39.577 0 0 0 8.653-32.41 179.173 179.173 0 0 0-5.532-22.555h144.516c9.945 0 19.344-4.406 25.781-12.086a34.019 34.019 0 0 0 7.438-27.855zM324.055 92.778c0-30.043 23.777-54.48 53.004-54.48 29.226 0 53.003 24.437 53.003 54.48 0 30.04-23.777 54.477-53.003 54.477-29.227 0-53.004-24.438-53.004-54.477zM97.094 105.254c0-41.219 32.68-74.754 72.847-74.754 40.168 0 72.852 33.535 72.852 74.754s-32.684 74.754-72.852 74.754c-40.168 0-72.847-33.535-72.847-74.754zm210.531 231.933c-1.04 1.239-3.32 3.313-6.953 3.313H39.21c-3.633 0-5.914-2.074-6.953-3.313-1.078-1.289-2.79-4.03-2.106-7.898 12.274-69.113 71.063-119.281 139.79-119.281 68.726 0 127.519 50.168 139.788 119.281.688 3.867-1.023 6.61-2.105 7.899zm173.418-67.05c-.426.508-1.352 1.355-2.785 1.355h-157.13a174.603 174.603 0 0 0-33.644-44.273c19.54-31.082 52.934-49.965 89.575-49.965 51.558 0 95.66 37.656 104.875 89.543a4.033 4.033 0 0 1-.891 3.34zm0 0"/></svg>