<svg xmlns="http://www.w3.org/2000/svg" viewBox="0 0 512 512"><g fill="#8c91b6"><path d="M497 121H383V32c0-8.284-6.716-15-15-15H15C6.716 17 0 23.716 0 32v388c0 41.355 33.645 75 75 75h362c41.355 0 75-33.645 75-75V136c0-8.284-6.716-15-15-15zM75 465c-24.813 0-45-20.187-45-45V47h323c0 396.466-.189 374.424.344 380.077A74.764 74.764 0 0 0 368.035 465zm407-45c0 24.813-20.187 45-45 45h-9c-24.813 0-45-20.187-45-45V151h99z"/><path d="M304 89H80c-8.284 0-15 6.716-15 15s6.716 15 15 15h224c8.284 0 15-6.716 15-15s-6.716-15-15-15zM304 153H80c-8.284 0-15 6.716-15 15s6.716 15 15 15h224c8.284 0 15-6.716 15-15s-6.716-15-15-15zM304 393H80c-8.284 0-15 6.716-15 15s6.716 15 15 15h224c8.284 0 15-6.716 15-15s-6.716-15-15-15zM304 217H192c-8.284 0-15 6.716-15 15v112c0 8.284 6.716 15 15 15h112c8.284 0 15-6.716 15-15V232c0-8.284-6.716-15-15-15zm-15 112h-82v-82h82zM80 271h48c8.284 0 15-6.716 15-15s-6.716-15-15-15H80c-8.284 0-15 6.716-15 15s6.716 15 15 15zM80 335h48c8.284 0 15-6.716 15-15s-6.716-15-15-15H80c-8.284 0-15 6.716-15 15s6.716 15 15 15z"/></g></svg>