<svg xmlns="http://www.w3.org/2000/svg" xml:space="preserve" style="enable-background:new 0 0 512 512" viewBox="0 0 512 512"><path fill="#2aa3fb" d="M486.305 25.696C469.736 9.126 447.705 0 424.272 0s-45.464 9.126-62.033 25.696L41.916 346.018a15.55 15.55 0 0 0-4.033 6.983L.532 492.399A15.57 15.57 0 0 0 15.572 512c1.343 0 2.697-.173 4.029-.53l139.398-37.35a15.558 15.558 0 0 0 6.983-4.034l320.322-320.322c16.57-16.57 25.695-38.6 25.695-62.033 0-23.435-9.124-45.465-25.694-62.035zM351.908 80.068l28.999 28.999L103.942 386.03l-28.999-28.999L351.908 80.068zM37.593 474.409l23.391-87.297 63.906 63.906-87.297 23.391zm117.376-37.352-29.007-29.007 276.964-276.964 29.005 29.005-276.962 276.966zm309.316-309.314-10.331 10.331-80.025-80.026 10.331-10.331c10.687-10.688 24.897-16.575 40.012-16.575 15.115 0 29.325 5.887 40.013 16.575 22.062 22.062 22.062 57.963 0 80.026z"/></svg>